<svg version="1.2" baseProfile="tiny-ps" xmlns="http://www.w3.org/2000/svg" viewBox="0 0 4167 1783" width="210" height="90">
	<title>Nuevo proyecto</title>
	<style>
		tspan { white-space:pre }
		.shp0 { fill: #ffffff } 
	</style>
	<path id="SERGIO VÃZQUEZ " fill-rule="evenodd" class="shp0" d="M491.35 661.08C352.73 661.08 244.06 596.91 235.5 460.85L437.44 460.85C440.86 505.35 464.82 513.05 483.65 513.05C502.47 513.05 520.44 504.49 520.44 483.1C519.59 400.96 233.79 430.9 237.21 223.83C237.21 102.32 339.89 39 469.1 39C615.42 39 709.55 109.17 714.68 234.95L510.17 234.95C508.46 198.16 488.78 187.03 468.25 187.03C452.84 187.03 440.86 197.3 440.86 217.84C440.86 293.99 722.39 281.16 722.39 467.7C722.39 578.94 637.67 661.08 491.35 661.08ZM1321.37 200.72L1107.44 200.72L1107.44 275.17L1295.7 275.17L1295.7 418.07L1107.44 418.07L1107.44 503.64L1321.37 503.64L1321.37 655.09L917.48 655.09L917.48 49.27L1321.37 49.27L1321.37 200.72ZM1803.97 49.27C1956.29 49.27 2034.15 136.55 2034.15 247.79C2034.15 327.37 1989.66 394.97 1903.23 423.2L2035.01 655.09L1826.22 655.09L1712.42 437.75L1711.56 437.75L1711.56 655.09L1521.6 655.09L1521.6 49.27L1803.97 49.27ZM1786.86 208.43L1711.56 208.43L1711.56 311.11L1786.86 311.11C1822.8 311.11 1841.62 295.71 1841.62 259.77C1841.62 228.96 1822.8 208.43 1786.86 208.43ZM2777.75 256.34L2577.52 256.34C2562.97 233.24 2535.59 218.69 2496.22 218.69C2422.64 218.69 2381.56 270.89 2381.56 351.33C2381.56 445.45 2424.35 492.51 2517.62 492.51C2560.4 492.51 2595.48 477.11 2623.72 439.46L2472.27 439.46L2472.27 305.12L2781.17 305.12L2781.17 495.08C2739.24 567.81 2653.67 659.37 2497.08 659.37C2306.26 659.37 2189.03 531.88 2189.03 351.33C2189.03 170.78 2305.41 43.28 2495.37 43.28C2656.24 43.28 2759.78 127.14 2777.75 256.34ZM2960.86 49.27L3150.83 49.27L3150.83 655.09L2960.86 655.09L2960.86 49.27ZM3659.96 661.08C3487.97 661.08 3347.63 531.88 3347.63 349.61C3347.63 167.35 3487.97 39 3659.96 39C3832.81 39 3970.57 167.35 3970.57 349.61C3970.57 531.88 3831.1 661.08 3659.96 661.08ZM3659.96 483.96C3736.12 483.96 3778.04 430.05 3778.04 349.61C3778.04 267.47 3736.12 214.42 3659.96 214.42C3582.09 214.42 3541.02 267.47 3541.02 349.61C3541.02 430.05 3582.09 483.96 3659.96 483.96ZM475.95 1076.48L677.89 1076.48L474.24 1682.3L228.65 1682.3L25 1076.48L226.94 1076.48L351.87 1493.2L475.95 1076.48ZM1109.16 1590.75L907.21 1590.75L877.26 1682.3L677.89 1682.3L899.51 1076.48L1118.57 1076.48L1339.34 1682.3L1139.1 1682.3L1109.16 1590.75ZM1118.57 820.63L1118.57 960.96L896.95 1041.4L896.95 914.75L1118.57 820.63ZM1008.18 1279.28L953.42 1447.85L1062.95 1447.85L1008.18 1279.28ZM1835.63 1219.38L1592.62 1530.85L1835.63 1530.85L1835.63 1682.3L1382.12 1682.3L1382.12 1539.41L1621.71 1227.08L1382.12 1227.08L1382.12 1076.48L1835.63 1076.48L1835.63 1219.38ZM2420.92 1614.71L2544.14 1780.71L2319.95 1780.71L2261.77 1684.87C2247.22 1687.44 2231.82 1688.29 2216.42 1688.29C2044.42 1688.29 1904.09 1559.09 1904.09 1376.82C1904.09 1194.56 2044.42 1066.21 2216.42 1066.21C2389.26 1066.21 2527.03 1194.56 2527.03 1376.82C2527.03 1476.08 2485.96 1559.09 2420.92 1614.71ZM2216.42 1511.17C2292.57 1511.17 2334.5 1457.26 2334.5 1376.82C2334.5 1294.68 2292.57 1241.63 2216.42 1241.63C2138.55 1241.63 2097.47 1294.68 2097.47 1376.82C2097.47 1457.26 2138.55 1511.17 2216.42 1511.17ZM2592.06 1076.48L2781.17 1076.48L2781.17 1417.9C2781.17 1470.09 2801.71 1508.6 2859.04 1508.6C2916.37 1508.6 2939.47 1470.09 2939.47 1417.9L2939.47 1076.48L3128.58 1076.48L3128.58 1417.9C3128.58 1596.74 3006.21 1688.29 2854.76 1688.29C2703.3 1688.29 2592.06 1596.74 2592.06 1417.9L2592.06 1076.48ZM3614.61 1227.93L3400.69 1227.93L3400.69 1302.38L3588.94 1302.38L3588.94 1445.28L3400.69 1445.28L3400.69 1530.85L3614.61 1530.85L3614.61 1682.3L3210.72 1682.3L3210.72 1076.48L3614.61 1076.48L3614.61 1227.93ZM4140 1219.38L3896.98 1530.85L4140 1530.85L4140 1682.3L3686.49 1682.3L3686.49 1539.41L3926.08 1227.08L3686.49 1227.08L3686.49 1076.48L4140 1076.48L4140 1219.38Z" />
</svg>